<?xml version="1.0" encoding="UTF-8"?>
<svg xmlns="http://www.w3.org/2000/svg" viewBox="0 0 910.69 417.88" version="1.1">
  <g transform="translate(-33.212 -419.63)">
    <g transform="matrix(.87843 0 0 .87823 2.7806 77.106)">
      <path style="stroke:#FFFFFF;stroke-width:9.1082;fill:#6c3eb8" d="M507.05 640.95c-0.16195-32.312-6.547-59.592-19.104-81.512-12.846-22.502-29.464-33.253-47.127-32.437-17.782 0.82187-29.18 14.48-35.854 40.177-6.3382 23.772 15.409 74.369 15.083 106.14-5.2594 36.65-35.125 81.09 19.746 90.998 18.112 0.83677 35.454-11.454 48.716-37.106 12.526-23.898 18.708-52.77 18.54-86.264z"/>
      <path style="stroke:#FFFFFF;stroke-width:9.1082;fill:#6c3eb8" d="M308.59 700.75c-5.84 44.69-39.62 81.72-106.49 105.41-21.14 7.526-43.326 13.303-66.055 17.419-22.584 3.9091-45.799 6.1535-69.075 6.8773 0 0-30.049-372.06-30.049-372.06 16.059-6.7658 33.175-12.557 51.012-17.142 87.415-22.468 149.65-7.7069 170.91 42.639 10.889 25.787 9.842 53.481-1.806 81.274-8.5046 20.237-20.33 36.142-34.344 47.877 18.271-0.98612 36.608 3.782 54.013 15.183 24.228 15.471 36.127 40.052 31.882 72.53z"/>
      <path style="stroke:#FFFFFF;stroke-width:9.1082;fill:#6c3eb8" d="M530.99 641.37c0.006 60.621-10.91 112.05-37.82 153.36-27.172 42.574-65.258 62.541-103.27 60.002-37.864-2.529-60.398-25.201-68.517-65.262-7.9861-40.051 14.695-63.883 15.624-119.49 0.93628-56-20.665-126.89-13.152-168.61 7.5694-41.927 29.125-65.542 66.498-68.021 37.52-2.488 75.017 16.438 102.19 56.895 27.258 40.034 38.441 90.722 38.448 151.13z"/>
      <path style="stroke:#FFFFFF;stroke-width:9.1082;fill:#6c3eb8" d="M617.72 483.61s-14.029 378.2-14.029 378.2-59.568-7.8458-59.568-7.8458l13.085-377.95s60.512 7.5931 60.512 7.5931z"/>
      <path style="stroke:#FFFFFF;stroke-width:9.1082;fill:#6c3eb8" d="M784.84 852.47l-115.01-300.46 36.072 309.7-63.359 1.8536-17.124-422.64 70.992 0.24167 54.216 250.33 12.844-254.23 67.863 3.9364c20.888 22.394 21.417 154.88-17.639 407.42l-28.854 3.8426z"/>
      <path style="stroke:#FFFFFF;stroke-width:9.1082;fill:#6c3eb8" d="M1035.9 738.59s-4.4821 51.466-4.4821 51.466l-135.89-98.795 49.177 125.75-86.718 4.4289c4.8477-16.337-8.7883-378.01-19.198-378.01l73.952-5.2062-28.449 131.43s131.1-132.77 131.1-132.77l53.706 15.986-179.82 172.65 146.61 113.07z"/>
      <path style="stroke:#FFFFFF;stroke-width:9.1082;fill:#6c3eb8" d="M572.63 404.19c7.7755-7.7564 15.738-12.103 24.403-11.888 8.8595 0.10839 16.184 5.339 20.612 13.434 4.4109 8.0634 3.6288 25.672-0.49503 32.456-4.1389 6.7558-5.8811 12.157-13.131 19.081-14.08 7.614-31.911 12.533-40.486 2.2749-5.0114-7.3512-7.2731-17.437-5.4811-28.166 1.7267-10.693 6.8302-19.463 14.579-27.192z"/>
    </g>
  </g>
</svg>


